<svg width="126" height="20" viewBox="0 0 126 20" fill="none" xmlns="http://www.w3.org/2000/svg">
<path d="M40.4219 11.2969H38.7422V15H35.8047V3.625H40.4219C41.3438 3.625 42.138 3.79688 42.8047 4.14062C43.4766 4.48438 43.9922 4.95312 44.3516 5.54688C44.7161 6.14062 44.8984 6.81771 44.8984 7.57812C44.8984 8.31771 44.7161 8.96615 44.3516 9.52344C43.9922 10.0807 43.4766 10.5156 42.8047 10.8281C42.138 11.1406 41.3438 11.2969 40.4219 11.2969ZM40.4219 5.99219H38.7422V8.92969H40.4219C40.9479 8.92969 41.3281 8.80469 41.5625 8.55469C41.8021 8.30469 41.9219 7.98438 41.9219 7.59375C41.9219 7.17188 41.8021 6.79948 41.5625 6.47656C41.3281 6.15365 40.9479 5.99219 40.4219 5.99219ZM50.8438 3.625C52.1771 3.625 53.2344 3.91927 54.0156 4.50781C54.8021 5.09115 55.1953 5.94792 55.1953 7.07812C55.1953 7.97917 55.0182 8.67708 54.6641 9.17188C54.3151 9.66146 53.8464 10.0521 53.2578 10.3438L55.5703 14.875V15H52.4297L50.5234 11.1328H49.2266V15H46.2969V3.625H50.8438ZM50.8438 5.99219H49.2266V8.76562H50.8125C51.7812 8.76562 52.2656 8.30469 52.2656 7.38281C52.2656 6.94531 52.1458 6.60417 51.9062 6.35938C51.6667 6.11458 51.3125 5.99219 50.8438 5.99219ZM66.5 9.48438C66.5 10.6615 66.2839 11.6745 65.8516 12.5234C65.4245 13.3672 64.8333 14.0182 64.0781 14.4766C63.3229 14.9297 62.4583 15.1562 61.4844 15.1562C60.5 15.1562 59.6276 14.9297 58.8672 14.4766C58.1068 14.0182 57.5104 13.3672 57.0781 12.5234C56.651 11.6745 56.4375 10.6615 56.4375 9.48438V9.14844C56.4375 7.97135 56.651 6.96094 57.0781 6.11719C57.5052 5.26823 58.0964 4.61458 58.8516 4.15625C59.612 3.69792 60.4844 3.46875 61.4688 3.46875C62.4427 3.46875 63.3073 3.69792 64.0625 4.15625C64.8229 4.61458 65.4193 5.26823 65.8516 6.11719C66.2839 6.96094 66.5 7.97135 66.5 9.14844V9.48438ZM63.5234 9.13281C63.5234 8.05469 63.3438 7.24219 62.9844 6.69531C62.6302 6.14323 62.125 5.86719 61.4688 5.86719C60.1042 5.86719 59.4219 6.95573 59.4219 9.13281V9.48438C59.4219 10.5417 59.5938 11.3542 59.9375 11.9219C60.2812 12.4844 60.7969 12.7656 61.4844 12.7656C62.1406 12.7656 62.6432 12.4844 62.9922 11.9219C63.3464 11.3542 63.5234 10.5417 63.5234 9.48438V9.13281ZM72.2891 3.625H75.2109V11.3828C75.2109 12.1432 75.0339 12.8073 74.6797 13.375C74.3307 13.9375 73.8568 14.375 73.2578 14.6875C72.6589 15 71.987 15.1562 71.2422 15.1562C70.4766 15.1562 69.7943 15.026 69.1953 14.7656C68.5964 14.5052 68.125 14.1068 67.7812 13.5703C67.4375 13.0286 67.2656 12.3385 67.2656 11.5H70.2109C70.2109 12.0312 70.2995 12.3802 70.4766 12.5469C70.6536 12.7135 70.9089 12.7969 71.2422 12.7969C71.5859 12.7969 71.8464 12.6719 72.0234 12.4219C72.2005 12.1667 72.2891 11.8203 72.2891 11.3828V3.625ZM84.7422 15H76.8359V3.625H84.7656V5.99219H79.7734V8.03125H83.9688V10.3047H79.7734V12.6406H84.7422V15ZM95.1016 11.0859C95.0703 11.888 94.8568 12.5964 94.4609 13.2109C94.0651 13.8203 93.5156 14.2969 92.8125 14.6406C92.1146 14.9844 91.2917 15.1562 90.3438 15.1562C89.3177 15.1562 88.4401 14.9323 87.7109 14.4844C86.9818 14.0312 86.4245 13.3854 86.0391 12.5469C85.6589 11.7083 85.4688 10.7083 85.4688 9.54688V9.08594C85.4688 7.91927 85.6693 6.91667 86.0703 6.07812C86.4714 5.23958 87.0312 4.59375 87.75 4.14062C88.474 3.6875 89.3229 3.46094 90.2969 3.46094C91.3073 3.46094 92.1562 3.64323 92.8438 4.00781C93.5365 4.3724 94.0703 4.86979 94.4453 5.5C94.8255 6.13021 95.0495 6.84115 95.1172 7.63281H92.1953C92.1849 7.03906 92.0417 6.59635 91.7656 6.30469C91.4896 6.01302 91 5.86719 90.2969 5.86719C89.6615 5.86719 89.1927 6.10156 88.8906 6.57031C88.5938 7.03385 88.4453 7.86719 88.4453 9.07031V9.54688C88.4453 10.3542 88.5026 10.9922 88.6172 11.4609C88.737 11.9245 88.9349 12.2552 89.2109 12.4531C89.4922 12.651 89.8698 12.75 90.3438 12.75C90.9323 12.75 91.3828 12.6198 91.6953 12.3594C92.0078 12.0938 92.1693 11.6693 92.1797 11.0859H95.1016ZM101.68 15H98.75V5.99219H95.4609V3.625H105.039V5.99219H101.68V15ZM115.156 3.625V10.9922C115.156 12.3359 114.747 13.3672 113.93 14.0859C113.112 14.7995 112.018 15.1562 110.648 15.1562C109.747 15.1562 108.953 14.9974 108.266 14.6797C107.583 14.3568 107.052 13.8854 106.672 13.2656C106.292 12.6458 106.102 11.888 106.102 10.9922V3.625H109.047V10.9922C109.047 11.638 109.182 12.1016 109.453 12.3828C109.724 12.6589 110.122 12.7969 110.648 12.7969C111.174 12.7969 111.568 12.6589 111.828 12.3828C112.094 12.1016 112.227 11.638 112.227 10.9922V3.625H115.156ZM122.562 11.9375C122.562 11.7344 122.518 11.5547 122.43 11.3984C122.346 11.2422 122.169 11.0885 121.898 10.9375C121.633 10.7812 121.227 10.612 120.68 10.4297C120.19 10.263 119.714 10.0729 119.25 9.85938C118.786 9.64583 118.37 9.39583 118 9.10938C117.63 8.81771 117.336 8.47656 117.117 8.08594C116.898 7.6901 116.789 7.22917 116.789 6.70312C116.789 6.03646 116.982 5.46354 117.367 4.98438C117.753 4.5 118.279 4.1276 118.945 3.86719C119.612 3.60156 120.37 3.46875 121.219 3.46875C122.057 3.46875 122.797 3.61198 123.438 3.89844C124.083 4.17969 124.589 4.58594 124.953 5.11719C125.323 5.64844 125.508 6.28385 125.508 7.02344H122.586C122.586 6.65365 122.469 6.35417 122.234 6.125C122.005 5.89583 121.646 5.78125 121.156 5.78125C120.677 5.78125 120.315 5.8776 120.07 6.07031C119.831 6.25781 119.711 6.48177 119.711 6.74219C119.711 7.04427 119.893 7.29427 120.258 7.49219C120.622 7.6901 121.099 7.88802 121.688 8.08594C122.901 8.47656 123.839 8.97135 124.5 9.57031C125.161 10.1641 125.492 10.9479 125.492 11.9219C125.492 12.9635 125.109 13.763 124.344 14.3203C123.578 14.8776 122.549 15.1562 121.258 15.1562C120.664 15.1562 120.081 15.0807 119.508 14.9297C118.94 14.7786 118.424 14.5443 117.961 14.2266C117.503 13.9089 117.135 13.5026 116.859 13.0078C116.589 12.5078 116.453 11.9115 116.453 11.2188H119.391C119.391 11.8385 119.544 12.2682 119.852 12.5078C120.159 12.7422 120.628 12.8594 121.258 12.8594C121.737 12.8594 122.073 12.7656 122.266 12.5781C122.464 12.3854 122.562 12.1719 122.562 11.9375Z" fill="#131313"/>
<path fill-rule="evenodd" clip-rule="evenodd" d="M8.90425 0.937311C9.43383 0.41043 10.2904 0.413132 10.8172 0.940013C11.3441 1.46689 11.3441 2.32341 10.8172 2.85029L5.41333 8.2542C5.14854 8.51629 4.80269 8.64869 4.45684 8.64869C4.11099 8.64869 3.76514 8.51629 3.50305 8.2515L0.801094 5.54955C0.274213 5.02266 0.274213 4.16615 0.801094 3.63926C1.32797 3.11238 2.18449 3.11238 2.71137 3.63926L4.45684 5.38743L8.90425 0.937311ZM8.90425 11.7451C9.43383 11.2182 10.2904 11.2209 10.8172 11.7478C11.3441 12.2747 11.3441 13.1312 10.8172 13.6581L5.41333 19.062C5.14854 19.3241 4.80269 19.4565 4.45684 19.4565C4.11099 19.4565 3.76514 19.3241 3.50305 19.062L0.801094 16.3601C0.274213 15.8332 0.274213 14.9767 0.801094 14.4498C1.32797 13.9229 2.18449 13.9229 2.71137 14.4498L4.45684 16.1952L8.90425 11.7451ZM20.6686 3.24478H15.2646C14.5189 3.24478 13.9137 3.85002 13.9137 4.59576C13.9137 5.34149 14.5189 5.94673 15.2646 5.94673H20.6686C21.4143 5.94673 22.0195 5.34149 22.0195 4.59576C22.0195 3.85002 21.4143 3.24478 20.6686 3.24478ZM15.2646 14.0526H20.6686C21.4143 14.0526 22.0195 14.6578 22.0195 15.4036C22.0195 16.1493 21.4143 16.7545 20.6686 16.7545H15.2646C14.5189 16.7545 13.9137 16.1493 13.9137 15.4036C13.9137 14.6578 14.5189 14.0526 15.2646 14.0526Z" fill="#FFC200"/>
</svg>
